<svg data-v-423bf9ae="" xmlns="http://www.w3.org/2000/svg" viewBox="0 0 229.74094365895533 163" class="iconAbove"><!----><!----><!----><g data-v-423bf9ae="" id="16220856-ab79-4f2f-8486-1eaf63f4d0de" fill="#ffffff" transform="matrix(4.441154624981523,0,0,4.441154624981523,-1.8652830439999661,91.54182236005519)"><path d="M1.68 6.13L0.64 6.13C0.48 6.13 0.42 6.19 0.42 6.36L0.42 6.78C0.42 6.96 0.48 7 0.64 7L1.68 7L1.68 13.01C1.68 13.17 1.72 13.23 1.89 13.23L2.51 13.23C2.67 13.23 2.72 13.17 2.72 13.01L2.72 7L5.25 7C5.40 7 5.46 6.96 5.46 6.78L5.46 6.36C5.46 6.19 5.42 6.13 5.25 6.13L2.72 6.13L2.72 5.77C2.72 4.13 3.21 3.53 4.33 3.53C4.69 3.53 4.89 3.57 5.17 3.68C5.35 3.77 5.39 3.75 5.45 3.57L5.53 3.12C5.57 2.97 5.56 2.93 5.43 2.84C4.94 2.59 4.40 2.58 4.21 2.58C2.37 2.58 1.68 3.74 1.68 5.70ZM7.22 13.01C7.22 13.17 7.28 13.23 7.45 13.23L8.06 13.23C8.23 13.23 8.27 13.17 8.27 13.01L8.27 3.12C8.27 2.95 8.23 2.90 8.06 2.90L7.45 2.90C7.28 2.90 7.22 2.95 7.22 3.12ZM13.34 11.68L13.33 11.68L10.96 6.33C10.88 6.15 10.82 6.10 10.68 6.10L9.95 6.10C9.80 6.10 9.77 6.16 9.84 6.33L12.77 12.87L11.44 15.86C11.35 16.03 11.40 16.09 11.55 16.09L12.26 16.09C12.40 16.09 12.47 16.04 12.56 15.86L16.80 6.33C16.88 6.16 16.84 6.10 16.69 6.10L15.97 6.10C15.83 6.10 15.76 6.15 15.68 6.33ZM27.34 7.67C27.09 7 26.35 5.95 24.98 5.95C23.65 5.95 23.00 7.04 22.75 7.63L22.64 6.33C22.57 6.16 22.51 6.10 22.40 6.10L22.05 6.10C21.90 6.10 21.84 6.16 21.84 6.33L21.84 13.01C21.84 13.17 21.90 13.23 22.05 13.23L22.68 13.23C22.83 13.23 22.89 13.17 22.89 13.01L22.89 9.48C22.89 7.99 23.59 6.90 24.72 6.90C25.87 6.90 26.56 7.91 26.56 9.38L26.56 13.01C26.56 13.17 26.63 13.23 26.77 13.23L27.40 13.23C27.57 13.23 27.61 13.17 27.61 13.01L27.61 9.41C27.61 7.87 28.41 6.90 29.44 6.90C30.44 6.90 31.28 7.71 31.28 9.38L31.28 13.01C31.28 13.17 31.35 13.23 31.49 13.23L32.12 13.23C32.28 13.23 32.33 13.17 32.33 13.01L32.33 9.10C32.33 6.86 31.07 5.95 29.69 5.95C28.36 5.95 27.62 7.04 27.34 7.67ZM40.31 11.77C40.19 11.65 40.14 11.68 39.98 11.76C39.31 12.25 38.47 12.46 37.79 12.46C36.37 12.46 35.18 11.34 35.08 10.04L40.92 10.04C41.10 10.04 41.13 9.98 41.13 9.81C41.13 7.71 39.86 5.95 37.67 5.95C35.63 5.95 34.01 7.63 34.01 9.67C34.01 11.72 35.63 13.38 37.74 13.38C38.78 13.38 39.91 13.05 40.57 12.40C40.67 12.31 40.67 12.22 40.57 12.10ZM35.11 9.31C35.15 8.05 36.22 6.83 37.66 6.83C39.09 6.83 40.00 8.05 40.05 9.31ZM43.47 7.10C44.00 7 44.73 6.87 45.63 6.87C47.10 6.87 47.61 7.52 47.61 9.28C46.90 8.99 46.09 8.79 45.35 8.79C43.62 8.79 42.48 9.53 42.48 11.06C42.48 12.56 43.62 13.38 44.97 13.38C46.48 13.38 47.40 12.57 47.78 12.05L47.84 13.01C47.88 13.17 47.94 13.23 48.05 13.23L48.45 13.23C48.61 13.23 48.66 13.17 48.66 13.01L48.66 9.31C48.66 7 48.02 5.95 45.67 5.95C44.59 5.95 43.43 6.16 43.26 6.20C43.09 6.26 43.05 6.33 43.09 6.48L43.20 6.90C43.25 7.07 43.29 7.14 43.47 7.10ZM45.56 9.58C46.35 9.58 46.90 9.79 47.61 10.08L47.61 11.24C47.17 11.90 46.26 12.56 45.29 12.56C44.16 12.56 43.53 11.93 43.53 11.06C43.53 10.11 44.23 9.58 45.56 9.58ZM51.10 13.01C51.10 13.17 51.16 13.23 51.32 13.23L51.94 13.23C52.11 13.23 52.15 13.17 52.15 13.01L52.15 3.12C52.15 2.95 52.11 2.90 51.94 2.90L51.32 2.90C51.16 2.90 51.10 2.95 51.10 3.12Z"></path></g><!----><g data-v-423bf9ae="" id="b8467101-c4cb-4393-baa4-350612633e95" transform="matrix(1.7874165449762207,0,0,1.7874165449762207,70.7579832373024,-0.03779599742075135)" stroke="none" fill="#047DAF"><path d="M6.241 13.319c-.062-1.254 2.521-2.332 3.687-2.332 3.865-.045 9.098-.002 9.098-.002L30.53.048l1.896 1.156-3.407 9.804 12.834-.022c1.167.002-4.827 4.205-8.174 4.789l-19.82.02h-3.7c-1.162-.002-3.957-1.039-3.918-2.476z"></path><path d="M43.201 4.375l1.391.707-1.728 4.76-4.969-.016z"></path><g><path d="M6.367 31.652c-.419-.393-.626-.908-.626-1.547v-9.023c0-.394.195-.591.591-.591.365 0 .55.209.55.627v6.666h1.955v-6.74c0-.368.18-.553.552-.553.342 0 .516.198.516.591v6.702h2.027v-6.74c0-.368.181-.553.551-.553.39 0 .587.198.587.591v9.17c0 .491-.201.945-.605 1.362-.409.418-.894.627-1.457.627v16.427c0 1.155-.528 1.731-1.583 1.731-1.056 0-1.583-.576-1.583-1.731V32.242a2.079 2.079 0 0 1-1.475-.59zM41.115 38.542h-1.69V23.181c0-.834.257-1.51.772-2.025.461-.443 1.031-.665 1.691-.665.641 0 1.193.222 1.66.665.517.516.773 1.192.773 2.028v25.52c0 1.131-.529 1.696-1.583 1.696-1.084 0-1.624-.566-1.624-1.7V38.542zM34.875 28.354H17.161c-.865 0-1.566.702-1.566 1.566v10.312c0 .863.701 1.565 1.566 1.565h17.714c.866 0 1.568-.702 1.568-1.565V29.92c0-.864-.702-1.566-1.568-1.566zM21.326 39.572h-3.701V35.87h3.701v3.702zm0-5.288h-3.701v-3.7h3.701v3.7zm12.89 5.288H22.983v-8.988h11.232v8.988z"></path></g></g><!----></svg>